P2
7 7
255
50 50 50 50 50 50 50
50 48 45 40 45 48 50
50 45 40 30 40 45 50
50 40 30 20 30 40 50
50 45 40 30 40 45 50
50 48 45 40 45 48 50
50 50 50 50 50 50 50
